<svg id="times-regular" xmlns="http://www.w3.org/2000/svg" width="34" height="34.005" viewBox="0 0 34 34.005">
  <path id="times-regular-2" data-name="times-regular" d="M22.065,113,33.51,101.553a1.7,1.7,0,0,0,0-2.4l-2.66-2.66a1.7,1.7,0,0,0-2.4,0L17.007,107.942,5.562,96.5a1.7,1.7,0,0,0-2.4,0L.5,99.154a1.7,1.7,0,0,0,0,2.4L11.949,113,.5,124.447a1.7,1.7,0,0,0,0,2.4l2.66,2.66a1.7,1.7,0,0,0,2.4,0l11.444-11.448L28.453,129.5a1.7,1.7,0,0,0,2.4,0l2.66-2.66a1.7,1.7,0,0,0,0-2.4Z" transform="translate(-0.007 -95.997)" fill="#6788a1"/>
</svg>
